<svg width="270" height="270" viewBox="0 0 270 270" fill="none" xmlns="http://www.w3.org/2000/svg">
<rect width="270" height="270" rx="10" fill="#DBDFC8"/>
<path d="M102.549 141H99.9121L94.7793 132.58V141H92.1426V128.203H94.7793L99.9209 136.641V128.203H102.549V141ZM104.289 136.157C104.289 135.214 104.471 134.373 104.834 133.635C105.197 132.896 105.719 132.325 106.398 131.921C107.084 131.517 107.878 131.314 108.78 131.314C110.063 131.314 111.109 131.707 111.918 132.492C112.732 133.277 113.187 134.344 113.28 135.691L113.298 136.342C113.298 137.801 112.891 138.973 112.076 139.857C111.262 140.736 110.169 141.176 108.798 141.176C107.427 141.176 106.331 140.736 105.511 139.857C104.696 138.979 104.289 137.783 104.289 136.271V136.157ZM106.829 136.342C106.829 137.244 106.999 137.936 107.339 138.416C107.679 138.891 108.165 139.128 108.798 139.128C109.413 139.128 109.894 138.894 110.239 138.425C110.585 137.95 110.758 137.194 110.758 136.157C110.758 135.272 110.585 134.587 110.239 134.101C109.894 133.614 109.407 133.371 108.78 133.371C108.159 133.371 107.679 133.614 107.339 134.101C106.999 134.581 106.829 135.328 106.829 136.342ZM122.315 141H119.679V128.203H122.315V141ZM126.982 131.49L127.062 132.554C127.735 131.728 128.646 131.314 129.795 131.314C131.02 131.314 131.86 131.798 132.317 132.765C132.985 131.798 133.938 131.314 135.174 131.314C136.205 131.314 136.973 131.616 137.477 132.22C137.98 132.817 138.232 133.72 138.232 134.927V141H135.684V134.936C135.684 134.396 135.578 134.004 135.367 133.758C135.156 133.506 134.784 133.38 134.251 133.38C133.489 133.38 132.962 133.743 132.669 134.47L132.678 141H130.138V134.944C130.138 134.394 130.029 133.995 129.812 133.749C129.596 133.503 129.227 133.38 128.705 133.38C127.984 133.38 127.463 133.679 127.141 134.276V141H124.601V131.49H126.982ZM145.703 141C145.586 140.771 145.501 140.487 145.448 140.147C144.833 140.833 144.033 141.176 143.049 141.176C142.117 141.176 141.344 140.906 140.729 140.367C140.119 139.828 139.814 139.148 139.814 138.328C139.814 137.32 140.187 136.547 140.931 136.008C141.681 135.469 142.762 135.196 144.174 135.19H145.343V134.646C145.343 134.206 145.229 133.854 145 133.591C144.777 133.327 144.423 133.195 143.937 133.195C143.509 133.195 143.172 133.298 142.926 133.503C142.686 133.708 142.565 133.989 142.565 134.347H140.025C140.025 133.796 140.195 133.286 140.535 132.817C140.875 132.349 141.355 131.982 141.977 131.719C142.598 131.449 143.295 131.314 144.068 131.314C145.24 131.314 146.169 131.61 146.854 132.202C147.546 132.788 147.892 133.614 147.892 134.681V138.803C147.897 139.705 148.023 140.388 148.27 140.851V141H145.703ZM143.603 139.233C143.978 139.233 144.323 139.151 144.64 138.987C144.956 138.817 145.19 138.592 145.343 138.311V136.676H144.394C143.122 136.676 142.445 137.115 142.363 137.994L142.354 138.144C142.354 138.46 142.466 138.721 142.688 138.926C142.911 139.131 143.216 139.233 143.603 139.233ZM149.474 136.175C149.474 134.716 149.819 133.541 150.511 132.65C151.208 131.76 152.146 131.314 153.323 131.314C154.366 131.314 155.178 131.672 155.758 132.387L155.863 131.49H158.166V140.684C158.166 141.516 157.976 142.239 157.595 142.854C157.22 143.47 156.689 143.938 156.004 144.261C155.318 144.583 154.516 144.744 153.596 144.744C152.898 144.744 152.219 144.604 151.557 144.322C150.895 144.047 150.394 143.689 150.054 143.25L151.179 141.703C151.812 142.412 152.579 142.767 153.481 142.767C154.155 142.767 154.68 142.585 155.055 142.222C155.43 141.864 155.617 141.354 155.617 140.692V140.183C155.031 140.845 154.261 141.176 153.306 141.176C152.163 141.176 151.237 140.73 150.528 139.84C149.825 138.943 149.474 137.757 149.474 136.28V136.175ZM152.014 136.359C152.014 137.221 152.187 137.897 152.532 138.39C152.878 138.876 153.353 139.119 153.956 139.119C154.729 139.119 155.283 138.829 155.617 138.249V134.25C155.277 133.67 154.729 133.38 153.974 133.38C153.364 133.38 152.884 133.629 152.532 134.127C152.187 134.625 152.014 135.369 152.014 136.359ZM164.503 141.176C163.108 141.176 161.972 140.748 161.093 139.893C160.22 139.037 159.783 137.897 159.783 136.474V136.228C159.783 135.272 159.968 134.42 160.337 133.67C160.706 132.914 161.228 132.334 161.901 131.93C162.581 131.52 163.354 131.314 164.222 131.314C165.522 131.314 166.545 131.725 167.289 132.545C168.039 133.365 168.414 134.528 168.414 136.034V137.071H162.358C162.44 137.692 162.687 138.19 163.097 138.565C163.513 138.94 164.037 139.128 164.67 139.128C165.648 139.128 166.413 138.773 166.964 138.064L168.212 139.462C167.831 140.001 167.315 140.423 166.665 140.728C166.015 141.026 165.294 141.176 164.503 141.176ZM164.213 133.371C163.709 133.371 163.299 133.541 162.982 133.881C162.672 134.221 162.473 134.707 162.385 135.34H165.918V135.138C165.906 134.575 165.754 134.142 165.461 133.837C165.168 133.526 164.752 133.371 164.213 133.371ZM175.015 138.372C175.015 138.062 174.859 137.818 174.549 137.643C174.244 137.461 173.752 137.3 173.072 137.159C170.811 136.685 169.68 135.724 169.68 134.276C169.68 133.433 170.028 132.729 170.726 132.167C171.429 131.599 172.346 131.314 173.477 131.314C174.684 131.314 175.647 131.599 176.368 132.167C177.095 132.735 177.458 133.474 177.458 134.382H174.918C174.918 134.019 174.801 133.72 174.566 133.485C174.332 133.245 173.966 133.125 173.468 133.125C173.04 133.125 172.709 133.222 172.475 133.415C172.24 133.608 172.123 133.854 172.123 134.153C172.123 134.435 172.255 134.663 172.519 134.839C172.788 135.009 173.239 135.158 173.872 135.287C174.505 135.41 175.038 135.551 175.472 135.709C176.813 136.201 177.484 137.054 177.484 138.267C177.484 139.134 177.112 139.837 176.368 140.376C175.624 140.909 174.663 141.176 173.485 141.176C172.688 141.176 171.979 141.035 171.358 140.754C170.743 140.467 170.26 140.077 169.908 139.585C169.557 139.087 169.381 138.551 169.381 137.977H171.789C171.812 138.428 171.979 138.773 172.29 139.014C172.601 139.254 173.017 139.374 173.538 139.374C174.024 139.374 174.391 139.283 174.637 139.102C174.889 138.914 175.015 138.671 175.015 138.372Z" fill="#A6C198"/>
</svg>
