<svg width="34" height="34" viewBox="0 0 34 34" fill="none" xmlns="http://www.w3.org/2000/svg">
<path d="M24.9307 21.9262H23.3551L22.7967 21.3881C25.1899 18.5976 26.4264 14.7906 25.7484 10.7445C24.811 5.2034 20.1841 0.778528 14.5999 0.100845C6.1638 -0.935611 -0.936099 6.16013 0.100965 14.5913C0.779046 20.1722 5.20651 24.7964 10.7508 25.7332C14.7994 26.4109 18.6086 25.1751 21.4007 22.7833L21.9391 23.3414V24.916L30.4151 33.387C31.2328 34.2042 32.569 34.2042 33.3867 33.387C34.2044 32.5698 34.2044 31.2344 33.3867 30.4172L24.9307 21.9262ZM12.9645 21.9262C7.99861 21.9262 3.98996 17.9199 3.98996 12.9569C3.98996 7.99386 7.99861 3.98756 12.9645 3.98756C17.9305 3.98756 21.9391 7.99386 21.9391 12.9569C21.9391 17.9199 17.9305 21.9262 12.9645 21.9262Z" fill="#818181"/>
</svg>
